<svg xmlns="http://www.w3.org/2000/svg" width="448" height="448" viewBox="0 0 448 448"><g style="font-style:normal;font-variant:normal;font-weight:700;font-stretch:normal;font-size:58.14687347px;line-height:125%;font-family:&quot;Segoe UI&quot;;-inkscape-font-specification:&quot;Segoe UI Bold&quot;;letter-spacing:0;word-spacing:0;fill-opacity:1;stroke:none;stroke-width:1px;stroke-linecap:butt;stroke-linejoin:miter;stroke-opacity:1"><path style="font-style:normal;font-variant:normal;font-weight:700;font-stretch:normal;font-size:261.66091919px;font-family:&quot;Segoe UI&quot;;-inkscape-font-specification:&quot;Segoe UI Bold&quot;" d="M338.214 193.631v189.277H297.97V239.115q-3.322 2.94-7.922 5.622a91 91 0 0 1-9.582 4.727 103 103 0 0 1-10.604 3.578 84 84 0 0 1-10.86 2.044v-33.985q15.715-4.6 29.64-11.755 13.928-7.155 25.17-15.715zM115.016 374.93v-35.135q18.398 13.415 42.93 13.415 15.458 0 24.019-6.644 8.688-6.643 8.688-18.526 0-12.266-10.732-18.909-10.605-6.644-29.258-6.644H133.67v-30.918h15.715q35.774 0 35.774-23.765 0-22.358-27.47-22.358-18.398 0-35.773 11.882v-32.963q19.291-9.71 44.973-9.71 28.108 0 43.695 12.648 15.715 12.65 15.715 32.836 0 35.901-36.413 44.973v.638q19.42 2.428 30.664 14.182 11.243 11.627 11.243 28.62 0 25.68-18.781 40.628t-51.873 14.949q-28.363 0-46.123-9.2m11.35-370.795c-25.15 0-45.397 21.13-45.397 47.375V67.3H50.705c-16.766 0-30.264 14.086-30.264 31.583v315.829c0 17.496 13.498 31.582 30.264 31.582h363.17c16.766 0 30.264-14.086 30.264-31.582V98.882c0-17.496-13.498-31.582-30.264-31.582H383.61V51.509c0-26.246-20.247-47.375-45.397-47.375s-45.396 21.13-45.396 47.375V67.3H171.762V51.509c0-26.246-20.247-47.375-45.397-47.375m0 31.583c8.383 0 15.132 7.043 15.132 15.792v47.374c0 8.748-6.75 15.791-15.133 15.791s-15.132-7.043-15.132-15.791V51.509c0-8.749 6.75-15.792 15.132-15.792m211.848 0c8.384 0 15.132 7.043 15.132 15.792v47.374c0 8.748-6.748 15.791-15.132 15.791-8.383 0-15.132-7.043-15.132-15.791V51.509c0-8.749 6.75-15.792 15.132-15.792M50.705 162.05h363.17v252.663H50.705z" transform="matrix(1.05736 0 0 1.0132 -21.613 -4.189)"/></g></svg>